key_frame=1
pkt_pts_time=0.000000
--
[/SIDE_DATA]
key_frame=1
pkt_pts_time=0.500500
--
[/SIDE_DATA]
key_frame=1
pkt_pts_time=1.001000
--
[/SIDE_DATA]
key_frame=1
pkt_pts_time=1.501500
--
[/SIDE_DATA]
key_frame=1
pkt_pts_time=2.002000
--
[/SIDE_DATA]
key_frame=1
pkt_pts_time=2.502500
--
[/SIDE_DATA]
key_frame=1
pkt_pts_time=3.003000
--
[/SIDE_DATA]
key_frame=1
pkt_pts_time=3.503500
--
[/SIDE_DATA]
key_frame=1
pkt_pts_time=4.004000
--
[/SIDE_DATA]
key_frame=1
pkt_pts_time=4.504500
--
[/SIDE_DATA]
key_frame=1
pkt_pts_time=5.005000
--
[/SIDE_DATA]
key_frame=1
pkt_pts_time=5.505500
--
[/SIDE_DATA]
key_frame=1
pkt_pts_time=6.006000
--
[/SIDE_DATA]
key_frame=1
pkt_pts_time=6.506500
--
[/SIDE_DATA]
key_frame=1
pkt_pts_time=7.007000
--
[/SIDE_DATA]
key_frame=1
pkt_pts_time=7.507500
--
[/SIDE_DATA]
key_frame=1
pkt_pts_time=8.008000
--
[/SIDE_DATA]
key_frame=1
pkt_pts_time=8.508500
--
[/SIDE_DATA]
key_frame=1
pkt_pts_time=9.009000
--
[/SIDE_DATA]
key_frame=1
pkt_pts_time=9.509500
--
[/SIDE_DATA]
key_frame=1
pkt_pts_time=10.010000
--
[/SIDE_DATA]
key_frame=1
pkt_pts_time=10.510500
--
[/SIDE_DATA]
key_frame=1
pkt_pts_time=11.011000
--
[/SIDE_DATA]
key_frame=1
pkt_pts_time=11.511500
--
[/SIDE_DATA]
key_frame=1
pkt_pts_time=12.012000
--
[/SIDE_DATA]
key_frame=1
pkt_pts_time=12.512500
--
[/SIDE_DATA]
key_frame=1
pkt_pts_time=13.013000
--
[/SIDE_DATA]
key_frame=1
pkt_pts_time=13.513500
--
[/SIDE_DATA]
key_frame=1
pkt_pts_time=14.014000
--
[/SIDE_DATA]
key_frame=1
pkt_pts_time=14.514500
--
[/SIDE_DATA]
key_frame=1
pkt_pts_time=15.015000
--
[/SIDE_DATA]
key_frame=1
pkt_pts_time=15.515500
--
[/SIDE_DATA]
key_frame=1
pkt_pts_time=16.016000
--
[/SIDE_DATA]
key_frame=1
pkt_pts_time=16.516500
--
[/SIDE_DATA]
key_frame=1
pkt_pts_time=17.017000
--
[/SIDE_DATA]
key_frame=1
pkt_pts_time=17.517500
--
[/SIDE_DATA]
key_frame=1
pkt_pts_time=18.018000
--
[/SIDE_DATA]
key_frame=1
pkt_pts_time=18.518500
--
[/SIDE_DATA]
key_frame=1
pkt_pts_time=19.019000
--
[/SIDE_DATA]
key_frame=1
pkt_pts_time=19.519500
--
[/SIDE_DATA]
key_frame=1
pkt_pts_time=20.020000
--
[/SIDE_DATA]
key_frame=1
pkt_pts_time=20.520500
--
[/SIDE_DATA]
key_frame=1
pkt_pts_time=21.021000
--
[/SIDE_DATA]
key_frame=1
pkt_pts_time=21.521500
--
[/SIDE_DATA]
key_frame=1
pkt_pts_time=22.022000
--
[/SIDE_DATA]
key_frame=1
pkt_pts_time=22.522500
--
[/SIDE_DATA]
key_frame=1
pkt_pts_time=23.023000
--
[/SIDE_DATA]
key_frame=1
pkt_pts_time=23.523500
--
[/SIDE_DATA]
key_frame=1
pkt_pts_time=24.024000
--
[/SIDE_DATA]
key_frame=1
pkt_pts_time=24.524500
--
[/SIDE_DATA]
key_frame=1
pkt_pts_time=25.025000
--
[/SIDE_DATA]
key_frame=1
pkt_pts_time=25.525500
--
[/SIDE_DATA]
key_frame=1
pkt_pts_time=26.026000
--
[/SIDE_DATA]
key_frame=1
pkt_pts_time=26.526500
--
[/SIDE_DATA]
key_frame=1
pkt_pts_time=27.027000
--
[/SIDE_DATA]
key_frame=1
pkt_pts_time=27.527500
--
[/SIDE_DATA]
key_frame=1
pkt_pts_time=28.028000
--
[/SIDE_DATA]
key_frame=1
pkt_pts_time=28.528500
--
[/SIDE_DATA]
key_frame=1
pkt_pts_time=29.029000
--
[/SIDE_DATA]
key_frame=1
pkt_pts_time=29.529500
--
[/SIDE_DATA]
key_frame=1
pkt_pts_time=30.030000
--
[/SIDE_DATA]
key_frame=1
pkt_pts_time=30.530500
--
[/SIDE_DATA]
key_frame=1
pkt_pts_time=31.031000
--
[/SIDE_DATA]
key_frame=1
pkt_pts_time=31.531500
--
[/SIDE_DATA]
key_frame=1
pkt_pts_time=32.032000
--
[/SIDE_DATA]
key_frame=1
pkt_pts_time=32.532500
--
[/SIDE_DATA]
key_frame=1
pkt_pts_time=33.033000
--
[/SIDE_DATA]
key_frame=1
pkt_pts_time=33.533500
--
[/SIDE_DATA]
key_frame=1
pkt_pts_time=34.034000
--
[/SIDE_DATA]
key_frame=1
pkt_pts_time=34.534500
--
[/SIDE_DATA]
key_frame=1
pkt_pts_time=35.035000
--
[/SIDE_DATA]
key_frame=1
pkt_pts_time=35.535500
--
[/SIDE_DATA]
key_frame=1
pkt_pts_time=36.036000
--
[/SIDE_DATA]
key_frame=1
pkt_pts_time=36.536500
--
[/SIDE_DATA]
key_frame=1
pkt_pts_time=37.037000
--
[/SIDE_DATA]
key_frame=1
pkt_pts_time=37.537500
--
[/SIDE_DATA]
key_frame=1
pkt_pts_time=38.038000
--
[/SIDE_DATA]
key_frame=1
pkt_pts_time=38.538500
--
[/SIDE_DATA]
key_frame=1
pkt_pts_time=39.039000
--
[/SIDE_DATA]
key_frame=1
pkt_pts_time=39.539500
--
[/SIDE_DATA]
key_frame=1
pkt_pts_time=40.040000
--
[/SIDE_DATA]
key_frame=1
pkt_pts_time=40.540500
--
[/SIDE_DATA]
key_frame=1
pkt_pts_time=41.041000
--
[/SIDE_DATA]
key_frame=1
pkt_pts_time=41.541500
--
[/SIDE_DATA]
key_frame=1
pkt_pts_time=42.042000
--
[/SIDE_DATA]
key_frame=1
pkt_pts_time=42.542500
--
[/SIDE_DATA]
key_frame=1
pkt_pts_time=43.043000
--
[/SIDE_DATA]
key_frame=1
pkt_pts_time=43.543500
--
[/SIDE_DATA]
key_frame=1
pkt_pts_time=44.044000
--
[/SIDE_DATA]
key_frame=1
pkt_pts_time=44.544500
--
[/SIDE_DATA]
key_frame=1
pkt_pts_time=45.045000
--
[/SIDE_DATA]
key_frame=1
pkt_pts_time=45.545500
--
[/SIDE_DATA]
key_frame=1
pkt_pts_time=46.046000
--
[/SIDE_DATA]
key_frame=1
pkt_pts_time=46.546500
--
[/SIDE_DATA]
key_frame=1
pkt_pts_time=47.047000
--
[/SIDE_DATA]
key_frame=1
pkt_pts_time=47.547500
--
[/SIDE_DATA]
key_frame=1
pkt_pts_time=48.048000
--
[/SIDE_DATA]
key_frame=1
pkt_pts_time=48.548500
--
[/SIDE_DATA]
key_frame=1
pkt_pts_time=49.049000
--
[/SIDE_DATA]
key_frame=1
pkt_pts_time=49.549500
--
[/SIDE_DATA]
key_frame=1
pkt_pts_time=50.050000
--
[/SIDE_DATA]
key_frame=1
pkt_pts_time=50.550500
--
[/SIDE_DATA]
key_frame=1
pkt_pts_time=51.051000
--
[/SIDE_DATA]
key_frame=1
pkt_pts_time=51.551500
--
[/SIDE_DATA]
key_frame=1
pkt_pts_time=52.052000
--
[/SIDE_DATA]
key_frame=1
pkt_pts_time=52.552500
--
[/SIDE_DATA]
key_frame=1
pkt_pts_time=53.053000
--
[/SIDE_DATA]
key_frame=1
pkt_pts_time=53.553500
--
[/SIDE_DATA]
key_frame=1
pkt_pts_time=54.054000
--
[/SIDE_DATA]
key_frame=1
pkt_pts_time=54.554500
--
[/SIDE_DATA]
key_frame=1
pkt_pts_time=55.055000
--
[/SIDE_DATA]
key_frame=1
pkt_pts_time=55.555500
--
[/SIDE_DATA]
key_frame=1
pkt_pts_time=56.056000
--
[/SIDE_DATA]
key_frame=1
pkt_pts_time=56.556500
--
[/SIDE_DATA]
key_frame=1
pkt_pts_time=57.057000
--
[/SIDE_DATA]
key_frame=1
pkt_pts_time=57.557500
--
[/SIDE_DATA]
key_frame=1
pkt_pts_time=58.058000
--
[/SIDE_DATA]
key_frame=1
pkt_pts_time=58.558500
--
[/SIDE_DATA]
key_frame=1
pkt_pts_time=59.059000
--
[/SIDE_DATA]
key_frame=1
pkt_pts_time=59.559500
--
[/SIDE_DATA]
key_frame=1
pkt_pts_time=60.060000
--
[/SIDE_DATA]
key_frame=1
pkt_pts_time=60.560500
--
[/SIDE_DATA]
key_frame=1
pkt_pts_time=61.061000
--
[/SIDE_DATA]
key_frame=1
pkt_pts_time=61.561500
--
[/SIDE_DATA]
key_frame=1
pkt_pts_time=62.062000
--
[/SIDE_DATA]
key_frame=1
pkt_pts_time=62.562500
--
[/SIDE_DATA]
key_frame=1
pkt_pts_time=63.063000
--
[/SIDE_DATA]
key_frame=1
pkt_pts_time=63.563500
--
[/SIDE_DATA]
key_frame=1
pkt_pts_time=64.064000
--
[/SIDE_DATA]
key_frame=1
pkt_pts_time=64.564500
--
[/SIDE_DATA]
key_frame=1
pkt_pts_time=65.065000
--
[/SIDE_DATA]
key_frame=1
pkt_pts_time=65.565500
--
[/SIDE_DATA]
key_frame=1
pkt_pts_time=66.066000
--
[/SIDE_DATA]
key_frame=1
pkt_pts_time=66.566500
--
[/SIDE_DATA]
key_frame=1
pkt_pts_time=67.067000
--
[/SIDE_DATA]
key_frame=1
pkt_pts_time=67.567500
--
[/SIDE_DATA]
key_frame=1
pkt_pts_time=68.068000
--
[/SIDE_DATA]
key_frame=1
pkt_pts_time=68.568500
--
[/SIDE_DATA]
key_frame=1
pkt_pts_time=69.069000
--
[/SIDE_DATA]
key_frame=1
pkt_pts_time=69.569500
--
[/SIDE_DATA]
key_frame=1
pkt_pts_time=70.070000
--
[/SIDE_DATA]
key_frame=1
pkt_pts_time=70.570500
--
[/SIDE_DATA]
key_frame=1
pkt_pts_time=71.071000
--
[/SIDE_DATA]
key_frame=1
pkt_pts_time=71.571500
--
[/SIDE_DATA]
key_frame=1
pkt_pts_time=72.072000
--
[/SIDE_DATA]
key_frame=1
pkt_pts_time=72.572500
--
[/SIDE_DATA]
key_frame=1
pkt_pts_time=73.073000
--
[/SIDE_DATA]
key_frame=1
pkt_pts_time=73.573500
--
[/SIDE_DATA]
key_frame=1
pkt_pts_time=74.074000
--
[/SIDE_DATA]
key_frame=1
pkt_pts_time=74.574500
--
[/SIDE_DATA]
key_frame=1
pkt_pts_time=75.075000
--
[/SIDE_DATA]
key_frame=1
pkt_pts_time=75.575500
--
[/SIDE_DATA]
key_frame=1
pkt_pts_time=76.076000
--
[/SIDE_DATA]
key_frame=1
pkt_pts_time=76.576500
--
[/SIDE_DATA]
key_frame=1
pkt_pts_time=77.077000
--
[/SIDE_DATA]
key_frame=1
pkt_pts_time=77.577500
--
[/SIDE_DATA]
key_frame=1
pkt_pts_time=78.078000
--
[/SIDE_DATA]
key_frame=1
pkt_pts_time=78.578500
--
[/SIDE_DATA]
key_frame=1
pkt_pts_time=79.079000
--
[/SIDE_DATA]
key_frame=1
pkt_pts_time=79.579500
--
[/SIDE_DATA]
key_frame=1
pkt_pts_time=80.080000
--
[/SIDE_DATA]
key_frame=1
pkt_pts_time=80.580500
--
[/SIDE_DATA]
key_frame=1
pkt_pts_time=81.081000
--
[/SIDE_DATA]
key_frame=1
pkt_pts_time=81.581500
--
[/SIDE_DATA]
key_frame=1
pkt_pts_time=82.082000
--
[/SIDE_DATA]
key_frame=1
pkt_pts_time=82.582500
--
[/SIDE_DATA]
key_frame=1
pkt_pts_time=83.083000
--
[/SIDE_DATA]
key_frame=1
pkt_pts_time=83.583500
--
[/SIDE_DATA]
key_frame=1
pkt_pts_time=84.084000
--
[/SIDE_DATA]
key_frame=1
pkt_pts_time=84.584500
--
[/SIDE_DATA]
key_frame=1
pkt_pts_time=85.085000
--
[/SIDE_DATA]
key_frame=1
pkt_pts_time=85.585500
--
[/SIDE_DATA]
key_frame=1
pkt_pts_time=86.086000
--
[/SIDE_DATA]
key_frame=1
pkt_pts_time=86.586500
--
[/SIDE_DATA]
key_frame=1
pkt_pts_time=87.087000
--
[/SIDE_DATA]
key_frame=1
pkt_pts_time=87.587500
--
[/SIDE_DATA]
key_frame=1
pkt_pts_time=88.088000
--
[/SIDE_DATA]
key_frame=1
pkt_pts_time=88.588500
--
[/SIDE_DATA]
key_frame=1
pkt_pts_time=89.089000
--
[/SIDE_DATA]
key_frame=1
pkt_pts_time=89.589500
--
[/SIDE_DATA]
key_frame=1
pkt_pts_time=90.090000
--
[/SIDE_DATA]
key_frame=1
pkt_pts_time=90.590500
--
[/SIDE_DATA]
key_frame=1
pkt_pts_time=91.091000
--
[/SIDE_DATA]
key_frame=1
pkt_pts_time=91.591500
--
[/SIDE_DATA]
key_frame=1
pkt_pts_time=92.092000
--
[/SIDE_DATA]
key_frame=1
pkt_pts_time=92.592500
--
[/SIDE_DATA]
key_frame=1
pkt_pts_time=93.093000
--
[/SIDE_DATA]
key_frame=1
pkt_pts_time=93.593500
--
[/SIDE_DATA]
key_frame=1
pkt_pts_time=94.094000
--
[/SIDE_DATA]
key_frame=1
pkt_pts_time=94.594500
--
[/SIDE_DATA]
key_frame=1
pkt_pts_time=95.095000
--
[/SIDE_DATA]
key_frame=1
pkt_pts_time=95.595500
--
[/SIDE_DATA]
key_frame=1
pkt_pts_time=96.096000
--
[/SIDE_DATA]
key_frame=1
pkt_pts_time=96.596500
--
[/SIDE_DATA]
key_frame=1
pkt_pts_time=97.097000
--
[/SIDE_DATA]
key_frame=1
pkt_pts_time=97.597500
--
[/SIDE_DATA]
key_frame=1
pkt_pts_time=98.098000
--
[/SIDE_DATA]
key_frame=1
pkt_pts_time=98.598500
--
[/SIDE_DATA]
key_frame=1
pkt_pts_time=99.099000
--
[/SIDE_DATA]
key_frame=1
pkt_pts_time=99.599500
--
[/SIDE_DATA]
key_frame=1
pkt_pts_time=100.100000
--
[/SIDE_DATA]
key_frame=1
pkt_pts_time=100.600500
--
[/SIDE_DATA]
key_frame=1
pkt_pts_time=101.101000
--
[/SIDE_DATA]
key_frame=1
pkt_pts_time=101.601500
--
[/SIDE_DATA]
key_frame=1
pkt_pts_time=102.102000
--
[/SIDE_DATA]
key_frame=1
pkt_pts_time=102.602500
--
[/SIDE_DATA]
key_frame=1
pkt_pts_time=103.103000
--
[/SIDE_DATA]
key_frame=1
pkt_pts_time=103.603500
--
[/SIDE_DATA]
key_frame=1
pkt_pts_time=104.104000
--
[/SIDE_DATA]
key_frame=1
pkt_pts_time=104.604500
--
[/SIDE_DATA]
key_frame=1
pkt_pts_time=105.105000
--
[/SIDE_DATA]
key_frame=1
pkt_pts_time=105.605500
--
[/SIDE_DATA]
key_frame=1
pkt_pts_time=106.106000
--
[/SIDE_DATA]
key_frame=1
pkt_pts_time=106.606500
--
[/SIDE_DATA]
key_frame=1
pkt_pts_time=107.107000
--
[/SIDE_DATA]
key_frame=1
pkt_pts_time=107.607500
--
[/SIDE_DATA]
key_frame=1
pkt_pts_time=108.108000
--
[/SIDE_DATA]
key_frame=1
pkt_pts_time=108.608500
--
[/SIDE_DATA]
key_frame=1
pkt_pts_time=109.109000
--
[/SIDE_DATA]
key_frame=1
pkt_pts_time=109.609500
--
[/SIDE_DATA]
key_frame=1
pkt_pts_time=110.110000
--
[/SIDE_DATA]
key_frame=1
pkt_pts_time=110.610500
--
[/SIDE_DATA]
key_frame=1
pkt_pts_time=111.111000
--
[/SIDE_DATA]
key_frame=1
pkt_pts_time=111.611500
--
[/SIDE_DATA]
key_frame=1
pkt_pts_time=112.112000
--
[/SIDE_DATA]
key_frame=1
pkt_pts_time=112.612500
--
[/SIDE_DATA]
key_frame=1
pkt_pts_time=113.113000
--
[/SIDE_DATA]
key_frame=1
pkt_pts_time=113.613500
--
[/SIDE_DATA]
key_frame=1
pkt_pts_time=114.114000
--
[/SIDE_DATA]
key_frame=1
pkt_pts_time=114.614500
--
[/SIDE_DATA]
key_frame=1
pkt_pts_time=115.115000
--
[/SIDE_DATA]
key_frame=1
pkt_pts_time=115.615500
--
[/SIDE_DATA]
key_frame=1
pkt_pts_time=116.116000
--
[/SIDE_DATA]
key_frame=1
pkt_pts_time=116.616500
--
[/SIDE_DATA]
key_frame=1
pkt_pts_time=117.117000
--
[/SIDE_DATA]
key_frame=1
pkt_pts_time=117.617500
--
[/SIDE_DATA]
key_frame=1
pkt_pts_time=118.118000
--
[/SIDE_DATA]
key_frame=1
pkt_pts_time=118.618500
--
[/SIDE_DATA]
key_frame=1
pkt_pts_time=119.119000
--
[/SIDE_DATA]
key_frame=1
pkt_pts_time=119.619500
--
[/SIDE_DATA]
key_frame=1
pkt_pts_time=120.120000
--
[/SIDE_DATA]
key_frame=1
pkt_pts_time=120.620500
--
[/SIDE_DATA]
key_frame=1
pkt_pts_time=121.121000
--
[/SIDE_DATA]
key_frame=1
pkt_pts_time=121.621500
--
[/SIDE_DATA]
key_frame=1
pkt_pts_time=122.122000
--
[/SIDE_DATA]
key_frame=1
pkt_pts_time=122.622500
--
[/SIDE_DATA]
key_frame=1
pkt_pts_time=123.123000
--
[/SIDE_DATA]
key_frame=1
pkt_pts_time=123.623500
--
[/SIDE_DATA]
key_frame=1
pkt_pts_time=124.124000
--
[/SIDE_DATA]
key_frame=1
pkt_pts_time=124.624500
--
[/SIDE_DATA]
key_frame=1
pkt_pts_time=125.125000
--
[/SIDE_DATA]
key_frame=1
pkt_pts_time=125.625500
--
[/SIDE_DATA]
key_frame=1
pkt_pts_time=126.126000
--
[/SIDE_DATA]
key_frame=1
pkt_pts_time=126.626500
--
[/SIDE_DATA]
key_frame=1
pkt_pts_time=127.127000
--
[/SIDE_DATA]
key_frame=1
pkt_pts_time=127.627500
--
[/SIDE_DATA]
key_frame=1
pkt_pts_time=128.128000
--
[/SIDE_DATA]
key_frame=1
pkt_pts_time=128.628500
--
[/SIDE_DATA]
key_frame=1
pkt_pts_time=129.129000
--
[/SIDE_DATA]
key_frame=1
pkt_pts_time=129.629500
--
[/SIDE_DATA]
key_frame=1
pkt_pts_time=130.130000
--
[/SIDE_DATA]
key_frame=1
pkt_pts_time=130.630500
--
[/SIDE_DATA]
key_frame=1
pkt_pts_time=131.131000
--
[/SIDE_DATA]
key_frame=1
pkt_pts_time=131.631500
--
[/SIDE_DATA]
key_frame=1
pkt_pts_time=132.132000
--
[/SIDE_DATA]
key_frame=1
pkt_pts_time=132.632500
--
[/SIDE_DATA]
key_frame=1
pkt_pts_time=133.133000
--
[/SIDE_DATA]
key_frame=1
pkt_pts_time=133.633500
--
[/SIDE_DATA]
key_frame=1
pkt_pts_time=134.134000
--
[/SIDE_DATA]
key_frame=1
pkt_pts_time=134.634500
--
[/SIDE_DATA]
key_frame=1
pkt_pts_time=135.135000
--
[/SIDE_DATA]
key_frame=1
pkt_pts_time=135.635500
--
[/SIDE_DATA]
key_frame=1
pkt_pts_time=136.136000
--
[/SIDE_DATA]
key_frame=1
pkt_pts_time=136.636500
--
[/SIDE_DATA]
key_frame=1
pkt_pts_time=137.137000
--
[/SIDE_DATA]
key_frame=1
pkt_pts_time=137.637500
--
[/SIDE_DATA]
key_frame=1
pkt_pts_time=138.138000
--
[/SIDE_DATA]
key_frame=1
pkt_pts_time=138.638500
--
[/SIDE_DATA]
key_frame=1
pkt_pts_time=139.139000
--
[/SIDE_DATA]
key_frame=1
pkt_pts_time=139.639500
--
[/SIDE_DATA]
key_frame=1
pkt_pts_time=140.140000
--
[/SIDE_DATA]
key_frame=1
pkt_pts_time=140.640500
--
[/SIDE_DATA]
key_frame=1
pkt_pts_time=141.141000
--
[/SIDE_DATA]
key_frame=1
pkt_pts_time=141.641500
--
[/SIDE_DATA]
key_frame=1
pkt_pts_time=142.142000
--
[/SIDE_DATA]
key_frame=1
pkt_pts_time=142.642500
--
[/SIDE_DATA]
key_frame=1
pkt_pts_time=143.143000
--
[/SIDE_DATA]
key_frame=1
pkt_pts_time=143.643500
--
[/SIDE_DATA]
key_frame=1
pkt_pts_time=144.144000
--
[/SIDE_DATA]
key_frame=1
pkt_pts_time=144.644500
--
[/SIDE_DATA]
key_frame=1
pkt_pts_time=145.145000
--
[/SIDE_DATA]
key_frame=1
pkt_pts_time=145.645500
--
[/SIDE_DATA]
key_frame=1
pkt_pts_time=146.146000
--
[/SIDE_DATA]
key_frame=1
pkt_pts_time=146.646500
--
[/SIDE_DATA]
key_frame=1
pkt_pts_time=147.147000
--
[/SIDE_DATA]
key_frame=1
pkt_pts_time=147.647500
--
[/SIDE_DATA]
key_frame=1
pkt_pts_time=148.148000
--
[/SIDE_DATA]
key_frame=1
pkt_pts_time=148.648500
--
[/SIDE_DATA]
key_frame=1
pkt_pts_time=149.149000
--
[/SIDE_DATA]
key_frame=1
pkt_pts_time=149.649500
--
[/SIDE_DATA]
key_frame=1
pkt_pts_time=150.150000
--
[/SIDE_DATA]
key_frame=1
pkt_pts_time=150.650500
--
[/SIDE_DATA]
key_frame=1
pkt_pts_time=151.151000
--
[/SIDE_DATA]
key_frame=1
pkt_pts_time=151.651500
--
[/SIDE_DATA]
key_frame=1
pkt_pts_time=152.152000
--
[/SIDE_DATA]
key_frame=1
pkt_pts_time=152.652500
--
[/SIDE_DATA]
key_frame=1
pkt_pts_time=153.153000
--
[/SIDE_DATA]
key_frame=1
pkt_pts_time=153.653500
--
[/SIDE_DATA]
key_frame=1
pkt_pts_time=154.154000
--
[/SIDE_DATA]
key_frame=1
pkt_pts_time=154.654500
--
[/SIDE_DATA]
key_frame=1
pkt_pts_time=155.155000
--
[/SIDE_DATA]
key_frame=1
pkt_pts_time=155.655500
--
[/SIDE_DATA]
key_frame=1
pkt_pts_time=156.156000
--
[/SIDE_DATA]
key_frame=1
pkt_pts_time=156.656500
--
[/SIDE_DATA]
key_frame=1
pkt_pts_time=157.157000
--
[/SIDE_DATA]
key_frame=1
pkt_pts_time=157.657500
--
[/SIDE_DATA]
key_frame=1
pkt_pts_time=158.158000
--
[/SIDE_DATA]
key_frame=1
pkt_pts_time=158.658500
--
[/SIDE_DATA]
key_frame=1
pkt_pts_time=159.159000
--
[/SIDE_DATA]
key_frame=1
pkt_pts_time=159.659500
--
[/SIDE_DATA]
key_frame=1
pkt_pts_time=160.160000
--
[/SIDE_DATA]
key_frame=1
pkt_pts_time=160.660500
--
[/SIDE_DATA]
key_frame=1
pkt_pts_time=161.161000
--
[/SIDE_DATA]
key_frame=1
pkt_pts_time=161.661500
--
[/SIDE_DATA]
key_frame=1
pkt_pts_time=162.162000
--
[/SIDE_DATA]
key_frame=1
pkt_pts_time=162.662500
--
[/SIDE_DATA]
key_frame=1
pkt_pts_time=163.163000
--
[/SIDE_DATA]
key_frame=1
pkt_pts_time=163.663500
--
[/SIDE_DATA]
key_frame=1
pkt_pts_time=164.164000
--
[/SIDE_DATA]
key_frame=1
pkt_pts_time=164.664500
--
[/SIDE_DATA]
key_frame=1
pkt_pts_time=165.165000
--
[/SIDE_DATA]
key_frame=1
pkt_pts_time=165.665500
--
[/SIDE_DATA]
key_frame=1
pkt_pts_time=166.166000
--
[/SIDE_DATA]
key_frame=1
pkt_pts_time=166.666500
--
[/SIDE_DATA]
key_frame=1
pkt_pts_time=167.167000
--
[/SIDE_DATA]
key_frame=1
pkt_pts_time=167.667500
--
[/SIDE_DATA]
key_frame=1
pkt_pts_time=168.168000
--
[/SIDE_DATA]
key_frame=1
pkt_pts_time=168.668500
--
[/SIDE_DATA]
key_frame=1
pkt_pts_time=169.169000
--
[/SIDE_DATA]
key_frame=1
pkt_pts_time=169.669500
--
[/SIDE_DATA]
key_frame=1
pkt_pts_time=170.170000
--
[/SIDE_DATA]
key_frame=1
pkt_pts_time=170.670500
--
[/SIDE_DATA]
key_frame=1
pkt_pts_time=171.171000
--
[/SIDE_DATA]
key_frame=1
pkt_pts_time=171.671500
--
[/SIDE_DATA]
key_frame=1
pkt_pts_time=172.172000
--
[/SIDE_DATA]
key_frame=1
pkt_pts_time=172.672500
--
[/SIDE_DATA]
key_frame=1
pkt_pts_time=173.173000
--
[/SIDE_DATA]
key_frame=1
pkt_pts_time=173.673500
--
[/SIDE_DATA]
key_frame=1
pkt_pts_time=174.174000
--
[/SIDE_DATA]
key_frame=1
pkt_pts_time=174.674500
--
[/SIDE_DATA]
key_frame=1
pkt_pts_time=175.175000
--
[/SIDE_DATA]
key_frame=1
pkt_pts_time=175.675500
--
[/SIDE_DATA]
key_frame=1
pkt_pts_time=176.176000
--
[/SIDE_DATA]
key_frame=1
pkt_pts_time=176.676500
--
[/SIDE_DATA]
key_frame=1
pkt_pts_time=177.177000
--
[/SIDE_DATA]
key_frame=1
pkt_pts_time=177.677500
--
[/SIDE_DATA]
key_frame=1
pkt_pts_time=178.178000
--
[/SIDE_DATA]
key_frame=1
pkt_pts_time=178.678500
--
[/SIDE_DATA]
key_frame=1
pkt_pts_time=179.179000
--
[/SIDE_DATA]
key_frame=1
pkt_pts_time=179.679500
--
[/SIDE_DATA]
key_frame=1
pkt_pts_time=180.180000
--
[/SIDE_DATA]
key_frame=1
pkt_pts_time=180.680500
--
[/SIDE_DATA]
key_frame=1
pkt_pts_time=181.181000
--
[/SIDE_DATA]
key_frame=1
pkt_pts_time=181.681500
--
[/SIDE_DATA]
key_frame=1
pkt_pts_time=182.182000
--
[/SIDE_DATA]
key_frame=1
pkt_pts_time=182.682500
--
[/SIDE_DATA]
key_frame=1
pkt_pts_time=183.183000
--
[/SIDE_DATA]
key_frame=1
pkt_pts_time=183.683500
--
[/SIDE_DATA]
key_frame=1
pkt_pts_time=184.184000
--
[/SIDE_DATA]
key_frame=1
pkt_pts_time=184.684500
--
[/SIDE_DATA]
key_frame=1
pkt_pts_time=185.185000
--
[/SIDE_DATA]
key_frame=1
pkt_pts_time=185.685500
--
[/SIDE_DATA]
key_frame=1
pkt_pts_time=186.186000
--
[/SIDE_DATA]
key_frame=1
pkt_pts_time=186.686500
--
[/SIDE_DATA]
key_frame=1
pkt_pts_time=187.187000
--
[/SIDE_DATA]
key_frame=1
pkt_pts_time=187.687500
--
[/SIDE_DATA]
key_frame=1
pkt_pts_time=188.188000
--
[/SIDE_DATA]
key_frame=1
pkt_pts_time=188.688500
--
[/SIDE_DATA]
key_frame=1
pkt_pts_time=189.189000
--
[/SIDE_DATA]
key_frame=1
pkt_pts_time=189.689500
--
[/SIDE_DATA]
key_frame=1
pkt_pts_time=190.190000
--
[/SIDE_DATA]
key_frame=1
pkt_pts_time=190.690500
--
[/SIDE_DATA]
key_frame=1
pkt_pts_time=191.191000
--
[/SIDE_DATA]
key_frame=1
pkt_pts_time=191.691500
--
[/SIDE_DATA]
key_frame=1
pkt_pts_time=192.192000
--
[/SIDE_DATA]
key_frame=1
pkt_pts_time=192.692500
--
[/SIDE_DATA]
key_frame=1
pkt_pts_time=193.193000
--
[/SIDE_DATA]
key_frame=1
pkt_pts_time=193.693500
--
[/SIDE_DATA]
key_frame=1
pkt_pts_time=194.194000
--
[/SIDE_DATA]
key_frame=1
pkt_pts_time=194.694500
--
[/SIDE_DATA]
key_frame=1
pkt_pts_time=195.195000
--
[/SIDE_DATA]
key_frame=1
pkt_pts_time=195.695500
--
[/SIDE_DATA]
key_frame=1
pkt_pts_time=196.196000
--
[/SIDE_DATA]
key_frame=1
pkt_pts_time=196.696500
--
[/SIDE_DATA]
key_frame=1
pkt_pts_time=197.197000
--
[/SIDE_DATA]
key_frame=1
pkt_pts_time=197.697500
--
[/SIDE_DATA]
key_frame=1
pkt_pts_time=198.198000
--
[/SIDE_DATA]
key_frame=1
pkt_pts_time=198.698500
--
[/SIDE_DATA]
key_frame=1
pkt_pts_time=199.199000
--
[/SIDE_DATA]
key_frame=1
pkt_pts_time=199.699500
--
[/SIDE_DATA]
key_frame=1
pkt_pts_time=200.200000
--
[/SIDE_DATA]
key_frame=1
pkt_pts_time=200.700500
--
[/SIDE_DATA]
key_frame=1
pkt_pts_time=201.201000
--
[/SIDE_DATA]
key_frame=1
pkt_pts_time=201.701500
--
[/SIDE_DATA]
key_frame=1
pkt_pts_time=202.202000
--
[/SIDE_DATA]
key_frame=1
pkt_pts_time=202.702500
--
[/SIDE_DATA]
key_frame=1
pkt_pts_time=203.203000
--
[/SIDE_DATA]
key_frame=1
pkt_pts_time=203.703500
--
[/SIDE_DATA]
key_frame=1
pkt_pts_time=204.204000
--
[/SIDE_DATA]
key_frame=1
pkt_pts_time=204.704500
--
[/SIDE_DATA]
key_frame=1
pkt_pts_time=205.205000
--
[/SIDE_DATA]
key_frame=1
pkt_pts_time=205.705500
--
[/SIDE_DATA]
key_frame=1
pkt_pts_time=206.206000
--
[/SIDE_DATA]
key_frame=1
pkt_pts_time=206.706500
--
[/SIDE_DATA]
key_frame=1
pkt_pts_time=207.207000
--
[/SIDE_DATA]
key_frame=1
pkt_pts_time=207.707500
--
[/SIDE_DATA]
key_frame=1
pkt_pts_time=208.208000
--
[/SIDE_DATA]
key_frame=1
pkt_pts_time=208.708500
--
[/SIDE_DATA]
key_frame=1
pkt_pts_time=209.209000
--
[/SIDE_DATA]
key_frame=1
pkt_pts_time=209.709500
--
[/SIDE_DATA]
key_frame=1
pkt_pts_time=210.210000
--
[/SIDE_DATA]
key_frame=1
pkt_pts_time=210.710500
--
[/SIDE_DATA]
key_frame=1
pkt_pts_time=211.211000
--
[/SIDE_DATA]
key_frame=1
pkt_pts_time=211.711500
--
[/SIDE_DATA]
key_frame=1
pkt_pts_time=212.212000
--
[/SIDE_DATA]
key_frame=1
pkt_pts_time=212.712500
--
[/SIDE_DATA]
key_frame=1
pkt_pts_time=213.213000
--
[/SIDE_DATA]
key_frame=1
pkt_pts_time=213.713500
--
[/SIDE_DATA]
key_frame=1
pkt_pts_time=214.214000
--
[/SIDE_DATA]
key_frame=1
pkt_pts_time=214.714500
--
[/SIDE_DATA]
key_frame=1
pkt_pts_time=215.215000
--
[/SIDE_DATA]
key_frame=1
pkt_pts_time=215.715500
--
[/SIDE_DATA]
key_frame=1
pkt_pts_time=216.216000
--
[/SIDE_DATA]
key_frame=1
pkt_pts_time=216.716500
--
[/SIDE_DATA]
key_frame=1
pkt_pts_time=217.217000
--
[/SIDE_DATA]
key_frame=1
pkt_pts_time=217.717500
